<svg width="37" height="37" viewBox="0 0 37 37" fill="none" xmlns="http://www.w3.org/2000/svg">
<g filter="url(#filter0_d_114_623)">
<path d="M31.681 17.5255C29.8934 24.6955 22.6313 29.0591 15.4604 27.2711C8.29248 25.4836 3.92892 18.221 5.71724 11.0515C7.50398 3.88066 14.7661 -0.483226 21.9348 1.3043C29.1052 3.09183 33.4685 10.3552 31.6808 17.5256L31.6809 17.5255H31.681Z" fill="#F7931A"/>
<path fill-rule="evenodd" clip-rule="evenodd" d="M24.6005 12.381C24.8669 10.5998 23.5109 9.64243 21.6566 9.00374L22.2582 6.59106L20.7895 6.2251L20.2039 8.57426C19.8178 8.47796 19.4213 8.38722 19.0272 8.29727L19.617 5.93261L18.1493 5.56665L17.5474 7.97855C17.2279 7.9058 16.9141 7.8339 16.6096 7.75815L16.6113 7.75056L14.586 7.2448L14.1953 8.81343C14.1953 8.81343 15.2849 9.06321 15.262 9.07858C15.8567 9.22702 15.9643 9.62071 15.9464 9.93276L15.2612 12.6814C15.3021 12.6918 15.3553 12.7068 15.4139 12.7304L15.3712 12.7197L15.3712 12.7197C15.335 12.7107 15.2973 12.7012 15.2586 12.692L14.2982 16.5424C14.2255 16.7231 14.041 16.9942 13.6252 16.8913C13.64 16.9126 12.5578 16.6249 12.5578 16.6249L11.8286 18.306L13.7399 18.7825C13.949 18.8349 14.1558 18.8888 14.3604 18.9422L14.3607 18.9422C14.5037 18.9795 14.6458 19.0166 14.787 19.0527L14.1792 21.493L15.6462 21.859L16.248 19.4445C16.6488 19.5533 17.0377 19.6537 17.4185 19.7483L16.8186 22.1513L18.2874 22.5173L18.8951 20.0815C21.3995 20.5555 23.2826 20.3644 24.0752 18.0992C24.7139 16.2754 24.0434 15.2235 22.7258 14.5375C23.6855 14.3161 24.4083 13.685 24.601 12.3812L24.6006 12.3808L24.6005 12.381ZM21.2449 17.0865C20.8285 18.7597 18.2094 18.068 17.0111 17.7515C16.9033 17.723 16.807 17.6976 16.7248 17.6772L17.5313 14.4441C17.6314 14.4691 17.7538 14.4966 17.8924 14.5277L17.8924 14.5277C19.132 14.8059 21.6716 15.3758 21.245 17.0865H21.2449ZM18.1408 13.027C19.1399 13.2937 21.3193 13.8753 21.6989 12.3545H21.699C22.0866 10.7992 19.9686 10.3302 18.9341 10.1012C18.8177 10.0754 18.7151 10.0527 18.6312 10.0318L17.9001 12.964C17.9691 12.9812 18.0501 13.0028 18.1408 13.027Z" fill="white"/>
</g>
<defs>
<filter id="filter0_d_114_623" x="0.851901" y="0.903809" width="35.6907" height="35.6907" filterUnits="userSpaceOnUse" color-interpolation-filters="sRGB">
<feFlood flood-opacity="0" result="BackgroundImageFix"/>
<feColorMatrix in="SourceAlpha" type="matrix" values="0 0 0 0 0 0 0 0 0 0 0 0 0 0 0 0 0 0 127 0" result="hardAlpha"/>
<feOffset dy="4.46133"/>
<feGaussianBlur stdDeviation="2.23067"/>
<feComposite in2="hardAlpha" operator="out"/>
<feColorMatrix type="matrix" values="0 0 0 0 0 0 0 0 0 0 0 0 0 0 0 0 0 0 0.25 0"/>
<feBlend mode="normal" in2="BackgroundImageFix" result="effect1_dropShadow_114_623"/>
<feBlend mode="normal" in="SourceGraphic" in2="effect1_dropShadow_114_623" result="shape"/>
</filter>
</defs>
</svg>
