<svg width="37" height="36" viewBox="0 0 37 36" fill="none" xmlns="http://www.w3.org/2000/svg">
<g clip-path="url(#clip0_241_660)">
<path d="M24.4336 11.0315H12.5892C9.8636 11.0315 7.65405 13.241 7.65405 15.9666V24.0603C7.65405 26.7859 9.8636 28.9955 12.5892 28.9955H24.4336C27.1592 28.9955 29.3687 26.7859 29.3687 24.0603V15.9666C29.3687 13.241 27.1592 11.0315 24.4336 11.0315Z" stroke="#A7AEBF" stroke-width="1.66561" stroke-linecap="round" stroke-linejoin="round"/>
<path d="M18.5111 23.9517C20.6807 23.9517 22.4395 22.1929 22.4395 20.0234C22.4395 17.8538 20.6807 16.095 18.5111 16.095C16.3416 16.095 14.5828 17.8538 14.5828 20.0234C14.5828 22.1929 16.3416 23.9517 18.5111 23.9517Z" stroke="#A7AEBF" stroke-width="1.11041" stroke-linecap="round" stroke-linejoin="round"/>
<path d="M15.1458 7.29065H21.8773" stroke="#A7AEBF" stroke-width="1.11041" stroke-linecap="round" stroke-linejoin="round"/>
</g>
<defs>
<clipPath id="clip0_241_660">
<rect width="23.6887" height="23.6887" fill="white" transform="translate(6.66699 6.30359)"/>
</clipPath>
</defs>
</svg>
