<svg width="19" height="18" viewBox="0 0 19 18" fill="none" xmlns="http://www.w3.org/2000/svg">
<g clip-path="url(#clip0_241_1120)">
<path d="M6.38572 9.97903C6.86726 9.97903 7.25902 9.58726 7.25902 9.10573C7.25902 8.62419 6.86726 8.23242 6.38572 8.23242C5.90418 8.23242 5.51245 8.62419 5.51245 9.10573C5.51245 9.58726 5.90418 9.97903 6.38572 9.97903Z" fill="#A7AEBF"/>
<path d="M6.38592 11.0201C5.62466 11.0201 4.97805 11.5202 4.75732 12.2092H8.01447C7.79378 11.5202 7.14714 11.0201 6.38592 11.0201V11.0201Z" fill="#A7AEBF"/>
<path d="M16.9786 2.73132H2.48322C1.56932 2.73132 0.847656 3.47356 0.847656 4.36689V13.8447C0.847656 14.7586 1.5899 15.4802 2.48322 15.4802H16.9786C17.8926 15.4802 18.6142 14.738 18.6142 13.8447V4.36689C18.6142 3.45295 17.872 2.73132 16.9786 2.73132V2.73132ZM8.61588 13.2502H4.15574C3.86828 13.2502 3.63524 13.0171 3.63524 12.7297C3.63524 11.7353 4.1656 10.8626 4.95825 10.3794C4.65584 10.0407 4.47155 9.59446 4.47155 9.10581C4.47155 8.05026 5.33028 7.1915 6.38583 7.1915C7.44137 7.1915 8.30014 8.05026 8.30014 9.10581C8.30014 9.59449 8.11584 10.0408 7.8134 10.3794C8.60606 10.8627 9.13641 11.7354 9.13641 12.7297C9.13638 13.0171 8.90333 13.2502 8.61588 13.2502V13.2502ZM14.1911 13.2502H11.4035C11.116 13.2502 10.883 13.0171 10.883 12.7297C10.883 12.4422 11.116 12.2092 11.4035 12.2092H14.1911C14.4785 12.2092 14.7116 12.4422 14.7116 12.7297C14.7116 13.0171 14.4785 13.2502 14.1911 13.2502ZM15.3061 11.0201H11.4035C11.116 11.0201 10.883 10.787 10.883 10.4996C10.883 10.2121 11.116 9.97908 11.4035 9.97908H15.3061C15.5936 9.97908 15.8266 10.2121 15.8266 10.4996C15.8266 10.787 15.5936 11.0201 15.3061 11.0201ZM15.3061 8.79H11.4035C11.116 8.79 10.883 8.55695 10.883 8.2695C10.883 7.98204 11.116 7.74899 11.4035 7.74899H15.3061C15.5936 7.74899 15.8266 7.98204 15.8266 8.2695C15.8266 8.55695 15.5936 8.79 15.3061 8.79ZM15.3061 6.00238H4.15574C3.86828 6.00238 3.63524 5.76934 3.63524 5.48188C3.63524 5.19442 3.86828 4.96137 4.15574 4.96137H15.3061C15.5936 4.96137 15.8266 5.19442 15.8266 5.48188C15.8266 5.76934 15.5936 6.00238 15.3061 6.00238Z" fill="#A7AEBF"/>
</g>
<defs>
<clipPath id="clip0_241_1120">
<rect width="17.7666" height="17.7666" fill="white" transform="translate(0.847656 0.222534)"/>
</clipPath>
</defs>
</svg>
