<svg width="19" height="18" viewBox="0 0 19 18" fill="none" xmlns="http://www.w3.org/2000/svg">
<g clip-path="url(#clip0_241_743)">
<path d="M16.5784 2.42755H2.88345C1.76044 2.42755 0.847656 3.34033 0.847656 4.46335V13.7167C0.847656 14.8397 1.76044 15.7525 2.88345 15.7525H16.5784C17.7014 15.7525 18.6142 14.8397 18.6142 13.7167V4.46335C18.6142 3.34033 17.7014 2.42755 16.5784 2.42755V2.42755ZM6.39971 5.3886C7.41984 5.3886 8.25034 6.21924 8.25034 7.23937C8.25034 8.25937 7.41984 9.09001 6.39971 9.09001C5.37957 9.09001 4.54907 8.25937 4.54907 7.23937C4.54907 6.21924 5.37957 5.3886 6.39971 5.3886ZM9.73094 12.2362C9.73094 12.5427 9.4822 12.7914 9.17573 12.7914H3.62368C3.31721 12.7914 3.06848 12.5427 3.06848 12.2362V11.866C3.06848 10.743 3.98126 9.83024 5.10427 9.83024H7.69514C8.81815 9.83024 9.73094 10.743 9.73094 11.866V12.2362ZM15.8382 12.7914H11.7667C11.4603 12.7914 11.2115 12.5427 11.2115 12.2362C11.2115 11.9297 11.4603 11.681 11.7667 11.681H15.8382C16.1447 11.681 16.3934 11.9297 16.3934 12.2362C16.3934 12.5427 16.1447 12.7914 15.8382 12.7914ZM15.8382 9.83024H11.7667C11.4603 9.83024 11.2115 9.58151 11.2115 9.27503C11.2115 8.96856 11.4603 8.71983 11.7667 8.71983H15.8382C16.1447 8.71983 16.3934 8.96856 16.3934 9.27503C16.3934 9.58151 16.1447 9.83024 15.8382 9.83024ZM15.8382 6.86919H11.7667C11.4603 6.86919 11.2115 6.62046 11.2115 6.31399C11.2115 6.00751 11.4603 5.75878 11.7667 5.75878H15.8382C16.1447 5.75878 16.3934 6.00751 16.3934 6.31399C16.3934 6.62046 16.1447 6.86919 15.8382 6.86919Z" fill="#F5C249"/>
</g>
<defs>
<clipPath id="clip0_241_743">
<rect width="17.7666" height="17.7666" fill="white" transform="translate(0.847656 0.206726)"/>
</clipPath>
</defs>
</svg>
