<svg width="27" height="28" viewBox="0 0 27 28" fill="none" xmlns="http://www.w3.org/2000/svg">
<path d="M18.1706 21.4211V21.4919C18.1706 22.5641 17.7492 23.5925 16.999 24.3507C16.2489 25.1088 15.2314 25.5348 14.1705 25.5348C13.1096 25.5348 12.0922 25.1088 11.342 24.3507C10.5918 23.5925 10.1704 22.5641 10.1704 21.4919V21.4211" stroke="white" stroke-width="1.11533" stroke-linecap="round" stroke-linejoin="round"/>
<path d="M23.6507 15.4171V19.9047C23.6457 20.3017 23.4887 20.6814 23.2128 20.964C22.9369 21.2467 22.5634 21.4104 22.1707 21.4208H6.17023C5.7775 21.4104 5.40401 21.2467 5.12808 20.964C4.85215 20.6814 4.69522 20.3017 4.69019 19.9047V15.2554C4.69001 13.9834 4.94042 12.7241 5.42682 11.5509C5.91322 10.3777 6.62588 9.31419 7.52322 8.42231C8.42056 7.53042 9.48462 6.82805 10.6534 6.35614C11.8221 5.88424 13.0721 5.65226 14.3304 5.67373C16.8355 5.745 19.2135 6.80451 20.9554 8.62549C22.6973 10.4465 23.6648 12.8843 23.6507 15.4171V15.4171Z" stroke="white" stroke-width="1.673" stroke-miterlimit="10"/>
<path d="M18.7695 13.9618C18.7695 12.844 18.3301 11.7719 17.5481 10.9815C16.766 10.1911 15.7053 9.74707 14.5994 9.74707" stroke="white" stroke-width="1.673" stroke-linecap="round" stroke-linejoin="round"/>
<path d="M14.3 5.67398V3.22803" stroke="white" stroke-width="1.673" stroke-linecap="round" stroke-linejoin="round"/>
</svg>
