<svg width="19" height="19" viewBox="0 0 19 19" fill="none" xmlns="http://www.w3.org/2000/svg">
<g clip-path="url(#clip0_241_767)">
<path d="M17.5038 2.93531L12.9079 2.93533C11.8421 2.93533 10.8407 3.44528 10.2138 4.30721L9.73094 4.97113L9.24814 4.30726C8.62127 3.4453 7.61982 2.93533 6.55403 2.93533L1.95807 2.93534C0.83505 2.93534 0.847662 2.92273 0.847662 4.04575L0.847656 15.1498C0.847656 16.2728 0.83505 16.2602 1.95807 16.2602H7.69514L9.73094 17.4921L11.7667 16.2602L17.5038 16.2602C18.6268 16.2602 18.6142 16.2728 18.6142 15.1498V4.04573C18.6142 2.92272 18.6268 2.93531 17.5038 2.93531ZM6.39971 5.89638C7.41985 5.89638 8.25035 6.72702 8.25035 7.74715C8.25035 8.76715 7.41985 9.59779 6.39971 9.59779C5.37958 9.59779 4.54907 8.76715 4.54907 7.74715C4.54907 6.72702 5.37958 5.89638 6.39971 5.89638ZM9.73094 12.744C9.73094 13.0505 9.48221 13.2992 9.17574 13.2992H3.62369C3.31721 13.2992 3.06848 13.0505 3.06848 12.744V12.3738C3.06848 11.2508 3.98126 10.338 5.10428 10.338H7.69514C8.81816 10.338 9.73094 11.2508 9.73094 12.3738V12.744ZM15.8382 13.2992H11.7667C11.4603 13.2992 11.2115 13.0505 11.2115 12.744C11.2115 12.4375 11.4603 12.1888 11.7667 12.1888H15.8382C16.1447 12.1888 16.3934 12.4375 16.3934 12.744C16.3934 13.0505 16.1447 13.2992 15.8382 13.2992ZM15.8382 10.338H11.7667C11.4603 10.338 11.2115 10.0893 11.2115 9.78281C11.2115 9.47634 11.4603 9.22761 11.7667 9.22761H15.8382C16.1447 9.22761 16.3934 9.47634 16.3934 9.78281C16.3934 10.0893 16.1447 10.338 15.8382 10.338ZM15.8382 7.37697H11.7667C11.4603 7.37697 11.2115 7.12824 11.2115 6.82176C11.2115 6.51529 11.4603 6.26656 11.7667 6.26656H15.8382C16.1447 6.26656 16.3934 6.51529 16.3934 6.82176C16.3934 7.12824 16.1447 7.37697 15.8382 7.37697Z" fill="#A7AEBF"/>
</g>
<defs>
<clipPath id="clip0_241_767">
<rect width="17.7666" height="17.7666" fill="white" transform="translate(0.847656 0.7146)"/>
</clipPath>
</defs>
</svg>
