<svg width="28" height="28" viewBox="0 0 28 28" fill="none" xmlns="http://www.w3.org/2000/svg">
<path d="M20.6092 13.1254C20.5961 14.4335 20.2552 15.7174 19.6178 16.8597C18.8926 18.1846 17.8032 19.274 16.4783 19.9992C14.9656 20.8116 13.228 21.1049 11.5324 20.8341C9.83688 20.5633 8.27709 19.7434 7.09262 18.5003C5.90816 17.2572 5.16452 15.6597 4.97592 13.953C4.78732 12.2464 5.16418 10.525 6.04864 9.05325C6.93309 7.58152 8.27623 6.44082 9.87175 5.80636C11.4673 5.17189 13.227 5.07874 14.8806 5.5412C16.5342 6.00367 17.9902 6.99618 19.0251 8.36631C20.06 9.73644 20.6165 11.4084 20.6092 13.1254Z" stroke="white" stroke-width="1.673" stroke-miterlimit="10" stroke-linecap="square"/>
<path d="M22.4432 22.8248C22.2405 23.0294 21.9992 23.1918 21.7333 23.3026C21.4674 23.4134 21.1822 23.4705 20.8942 23.4705C20.6061 23.4705 20.3209 23.4134 20.055 23.3026C19.7892 23.1918 19.5479 23.0294 19.3451 22.8248L16.4783 19.9993C17.8031 19.2742 18.8926 18.1847 19.6177 16.8599L22.4432 19.6936C22.6529 19.897 22.8195 20.1403 22.9333 20.4092C23.0471 20.6782 23.1058 20.9672 23.1058 21.2592C23.1058 21.5513 23.0471 21.8403 22.9333 22.1092C22.8195 22.3782 22.6529 22.6215 22.4432 22.8248V22.8248Z" stroke="white" stroke-width="1.673" stroke-linecap="round" stroke-linejoin="round"/>
<path d="M8.94336 12.7784C8.94336 11.8625 9.3072 10.9841 9.95484 10.3364C10.6025 9.68879 11.4809 9.32495 12.3968 9.32495" stroke="white" stroke-width="1.673" stroke-linecap="round" stroke-linejoin="round"/>
</svg>
